<svg version="1.1" xmlns="http://www.w3.org/2000/svg" viewBox="-0.90234475 -1.087891625 36.765626999999995 10.686525437499999" fill="none" stroke="black" stroke-width="0.6%" vector-effect="non-scaling-stroke">
    <path d="M 0.09766 6.2793 L 0.09766 7.77832 L 3.85742 7.77832 L 3.85742 6.2793 L 2.83691 6.2793 L 2.83691 0 L 1.11816 0 L 1.11816 6.2793 L 0.09766 6.2793 Z" />
    <path d="M 6.37207 -0.08789 Q 5.98 -0.09 5.66406 -0.00732 Q 5.35 0.07 5.12939 0.20264 Q 4.91 0.33 4.75342 0.52979 Q 4.59 0.73 4.50195 0.93262 Q 4.41 1.14 4.35303 1.40137 Q 4.3 1.67 4.27979 1.88965 Q 4.26 2.11 4.2627 2.3877 L 4.2627 5.33203 Q 4.26 6.34 4.84131 6.87744 Q 5.42 7.41 6.45996 7.41211 Q 8.57 7.41 8.56934 5.33203 L 8.56934 4.7998 Q 8.57 3.81 8.5498 3.4375 L 6.01074 3.4375 L 6.01074 2.41211 Q 6.01 2.36 6.0083 2.25342 Q 6.01 2.14 6.00586 2.08496 Q 6.01 1.91 6.02051 1.78467 Q 6.04 1.66 6.07422 1.53076 Q 6.11 1.4 6.20361 1.33545 Q 6.29 1.27 6.43066 1.26953 Q 6.57 1.27 6.66016 1.36963 Q 6.75 1.47 6.78467 1.65771 Q 6.82 1.85 6.83105 1.99219 Q 6.84 2.14 6.84082 2.3584 Q 6.84 2.79 6.83105 2.82715 L 8.56934 2.82715 L 8.56934 2.41211 Q 8.57 1.8 8.47656 1.37207 Q 8.38 0.94 8.14697 0.59814 Q 7.91 0.25 7.4707 0.08301 Q 7.03 -0.09 6.37207 -0.08789 Z" />
    <path d="M 6.44043 6.09863 Q 6.3 6.1 6.21094 6.02783 Q 6.12 5.96 6.07422 5.81543 Q 6.03 5.67 6.01563 5.5249 Q 6 5.38 6.00098 5.16113 Q 6 5.06 6.00586 4.85352 Q 6.01 4.65 6.01074 4.5459 L 6.83105 4.5459 L 6.83105 5.30762 Q 6.83 6.1 6.44043 6.09863 Z" />
    <path d="M 13.36914 5.1416 L 11.57227 5.1416 L 11.5625 5.41992 Q 11.56 5.52 11.54785 5.61523 Q 11.53 5.71 11.49414 5.81787 Q 11.46 5.92 11.37695 5.98633 Q 11.3 6.05 11.19141 6.0498 Q 11.01 6.05 10.91553 5.94727 Q 10.82 5.84 10.82031 5.65918 Q 10.82 5.27 11.13281 5.03906 L 12.21191 4.24805 Q 12.53 4.01 12.76855 3.74512 Q 13 3.48 13.12256 3.26416 Q 13.24 3.05 13.31299 2.79785 Q 13.38 2.55 13.39844 2.39258 Q 13.41 2.24 13.41309 2.04102 Q 13.41 0.99 12.81982 0.45166 Q 12.23 -0.09 11.21094 -0.08789 Q 9.04 -0.09 9.04297 2.11914 L 9.05273 2.7002 L 10.80078 2.7002 L 10.81055 1.84082 Q 10.81 1.67 10.85205 1.55029 Q 10.89 1.44 10.9668 1.38672 Q 11.04 1.34 11.10107 1.32324 Q 11.16 1.31 11.24023 1.30859 Q 11.59 1.31 11.5918 1.87988 Q 11.59 2.03 11.58691 2.09229 Q 11.58 2.16 11.55029 2.2876 Q 11.52 2.42 11.44775 2.51465 Q 11.38 2.61 11.24268 2.75391 Q 11.11 2.9 10.90332 3.05176 L 9.9707 3.76953 Q 9.67 4 9.47998 4.22607 Q 9.29 4.45 9.20654 4.69482 Q 9.12 4.94 9.09668 5.13916 Q 9.07 5.34 9.07227 5.64941 Q 9.07 6.21 9.39453 6.62109 Q 9.72 7.03 10.19775 7.22168 Q 10.68 7.41 11.24023 7.41211 Q 12.27 7.41 12.81982 6.88965 Q 13.37 6.37 13.36914 5.27832 L 13.36914 5.1416 Z" />
    <path d="M 14.0918 7.04102 L 14.0918 8.59863 L 15.79102 8.59863 L 15.79102 7.04102 L 16.10352 7.04102 L 16.10352 5.70801 L 15.79102 5.70801 L 15.79102 1.58691 Q 15.79 1.49 15.7959 1.44043 Q 15.8 1.39 15.81543 1.32568 Q 15.83 1.26 15.87158 1.23779 Q 15.91 1.21 15.97656 1.21094 Q 16.04 1.21 16.10352 1.23047 L 16.10352 0.03906 Q 15.73 -0.09 15.1709 -0.08789 Q 14.89 -0.09 14.68506 -0.01221 Q 14.48 0.06 14.37012 0.17334 Q 14.26 0.28 14.19189 0.45654 Q 14.13 0.63 14.10889 0.78125 Q 14.09 0.93 14.0918 1.12793 L 14.0918 5.70801 L 13.82324 5.70801 L 13.82324 7.04102 L 14.0918 7.04102 Z" />
    <path d="M 18.81836 6.2793 L 18.81836 7.77832 L 22.57813 7.77832 L 22.57813 6.2793 L 21.55762 6.2793 L 21.55762 0 L 19.83887 0 L 19.83887 6.2793 L 18.81836 6.2793 Z" />
    <path d="M 25.09277 -0.08789 Q 24.7 -0.09 24.38477 -0.00732 Q 24.07 0.07 23.8501 0.20264 Q 23.63 0.33 23.47412 0.52979 Q 23.32 0.73 23.22266 0.93262 Q 23.13 1.14 23.07373 1.40137 Q 23.02 1.67 23.00049 1.88965 Q 22.98 2.11 22.9834 2.3877 L 22.9834 5.33203 Q 22.98 6.34 23.56201 6.87744 Q 24.14 7.41 25.18066 7.41211 Q 27.29 7.41 27.29004 5.33203 L 27.29004 4.7998 Q 27.29 3.81 27.27051 3.4375 L 24.73145 3.4375 L 24.73145 2.41211 Q 24.73 2.36 24.729 2.25342 Q 24.73 2.14 24.72656 2.08496 Q 24.73 1.91 24.74121 1.78467 Q 24.76 1.66 24.79492 1.53076 Q 24.83 1.4 24.92432 1.33545 Q 25.01 1.27 25.15137 1.26953 Q 25.29 1.27 25.38086 1.36963 Q 25.47 1.47 25.50537 1.65771 Q 25.54 1.85 25.55176 1.99219 Q 25.56 2.14 25.56152 2.3584 Q 25.56 2.79 25.55176 2.82715 L 27.29004 2.82715 L 27.29004 2.41211 Q 27.29 1.8 27.19727 1.37207 Q 27.1 0.94 26.86768 0.59814 Q 26.63 0.25 26.19141 0.08301 Q 25.75 -0.09 25.09277 -0.08789 Z" />
    <path d="M 25.16113 6.09863 Q 25.02 6.1 24.93164 6.02783 Q 24.84 5.96 24.79492 5.81543 Q 24.75 5.67 24.73633 5.5249 Q 24.72 5.38 24.72168 5.16113 Q 24.72 5.06 24.72656 4.85352 Q 24.73 4.65 24.73145 4.5459 L 25.55176 4.5459 L 25.55176 5.30762 Q 25.55 6.1 25.16113 6.09863 Z" />
    <path d="M 30.50781 0 L 29.94629 3.33984 L 29.35547 0 L 27.64648 0 L 28.44727 4.11621 L 27.82227 7.3291 L 29.52148 7.3291 L 29.95117 4.8291 L 30.38086 7.3291 L 32.10938 7.3291 L 31.48926 4.07227 L 32.22168 0 L 30.50781 0 Z" />
    <path d="M 32.85156 7.04102 L 32.85156 8.59863 L 34.55078 8.59863 L 34.55078 7.04102 L 34.86328 7.04102 L 34.86328 5.70801 L 34.55078 5.70801 L 34.55078 1.58691 Q 34.55 1.49 34.55566 1.44043 Q 34.56 1.39 34.5752 1.32568 Q 34.59 1.26 34.63135 1.23779 Q 34.67 1.21 34.73633 1.21094 Q 34.8 1.21 34.86328 1.23047 L 34.86328 0.03906 Q 34.49 -0.09 33.93066 -0.08789 Q 33.65 -0.09 33.44482 -0.01221 Q 33.24 0.06 33.12988 0.17334 Q 33.02 0.28 32.95166 0.45654 Q 32.89 0.63 32.86865 0.78125 Q 32.85 0.93 32.85156 1.12793 L 32.85156 5.70801 L 32.58301 5.70801 L 32.58301 7.04102 L 32.85156 7.04102 Z" />
</svg>