<svg version="1.1" xmlns="http://www.w3.org/2000/svg" viewBox="-162.90376768250542 -4.990518866341921 330.9457984225442 9.999922008147006" fill="none" stroke="black" stroke-width="0.6%" vector-effect="non-scaling-stroke">
    <path d="M -45.01239 -3.83152 L -45.01239 -3.94969 L -15.92629 -3.99052 L 2.30354 -3.58073 L -26.78256 -3.5399 L -31.73066 -3.65113 L -153.57013 -3.48011 L -161.90377 -3.66744 L -40.06429 -3.83846 L -45.01239 -3.94969" />
    <path d="M 2.30354 -3.36926 L 2.30354 -3.58073" />
    <path d="M -26.78256 -3.47928 L -26.78256 -3.5399" />
    <path d="M -31.73066 -3.47968 L -31.73066 -3.65113" />
    <path d="M -153.57013 0.51983 L -153.57013 -3.48011" />
    <path d="M -140.00467 0.50079 L -153.57013 0.51983 L -161.90377 0.3325 L -161.90377 -3.66744" />
    <path d="M -138.13473 0.90753 Q -140.03 0.86 -140.00467 0.8291 Q -140.03 0.86 -140.00436 0.82817 L -140.00436 -3.1699" />
    <path d="M -138.13473 -3.09241 Q -140.03 -3.13 -140.00467 -3.17084 Q -140.03 -3.13 -140.00436 -3.17177 Q -139.98 -3.21 -138.52284 -3.23576 Q -137.07 -3.26 -133.99804 -3.28565 Q -130.93 -3.31 -127.40101 -3.32403 Q -123.87 -3.34 -119.02778 -3.35303 Q -114.18 -3.37 -109.90861 -3.37431 Q -105.63 -3.38 -100.32768 -3.38974 L -43.19767 -3.46993 Q -23.59 -3.5 -10.40601 -3.44896 Q 2.77 -3.4 7.81664 -3.2871 Q 18.04 -3.06 9.88441 -3.20122 Q 18.04 -3.06 -22.31623 -3.00054 L -32.64321 -2.98604 Q -51.88 -2.96 -59.17121 -2.95107 L -71.48226 -3.22781 L -91.37828 -3.19988 Q -92.33 -3.2 -94.46927 -3.19583 Q -96.61 -3.19 -97.74974 -3.1915 Q -101.16 -3.19 -103.50541 -3.18173 Q -105.85 -3.18 -108.17162 -3.16896 Q -110.49 -3.16 -111.33395 -3.14954 Q -112.17 -3.14 -111.80428 -3.1355 Q -112.17 -3.14 -111.51208 -3.12299 Q -110.83 -3.11 -108.45712 -3.10071 Q -106.09 -3.09 -102.26357 -3.09498 Q -98.44 -3.1 -95.54876 -3.09904 Q -92.66 -3.1 -88.39569 -3.10795 Q -80.06 -3.12 -79.34771 -3.12178 L -70.91938 -2.93232 L -78.97253 -2.92101 Q -90.82 -2.9 -99.60261 -2.9028 Q -108.39 -2.9 -116.21745 -2.91764 Q -124.05 -2.93 -129.49183 -2.97732 Q -134.94 -3.02 -138.13473 -3.09241 Z" />
    <path d="M -59.17121 -2.6408 L -59.17121 -2.95107" />
    <path d="M -71.48226 -2.94497 L -71.48226 -3.22781" />
    <path d="M -70.91938 -2.87349 L -70.91938 -2.93232" />
    <path d="M -116.74444 1.08115 Q -124.05 1.07 -129.49183 1.02262 Q -134.94 0.98 -138.13473 0.90753 L -138.13473 -3.09241" />
    <path d="M -17.76392 -3.25345 Q -18.43 -3.27 -20.25043 -3.27654 Q -22.07 -3.28 -25.03465 -3.28566 Q -28 -3.29 -30.95596 -3.28413 Q -33.92 -3.28 -38.08533 -3.27582 Q -40.07 -3.27 -44.03047 -3.26691 Q -47.99 -3.26 -49.9756 -3.258 L -45.99818 -3.16859 L -31.21828 -3.18934 Q -15.87 -3.21 -17.55587 -3.24435 Q -15.87 -3.21 -17.76392 -3.25345 Z" />
    <path d="M -2.73858 -2.38853 L -2.73858 -2.47221 L -11.45102 -2.66806 L -6.09802 -2.6767 Q -4.2 -2.68 -2.37932 -2.68362 Q -0.56 -2.69 1.29208 -2.69499 Q 3.14 -2.7 3.99251 -2.71235 Q 4.85 -2.72 4.522 -2.72564 Q 4.85 -2.72 4.32452 -2.7343 Q 3.45 -2.75 0.99727 -2.76158 Q -1.45 -2.77 -5.05423 -2.76411 Q -12.63 -2.75 -15.57138 -2.71316 L -25.68755 -2.574 Q -28.77 -2.53 -32.74711 -2.49964 Q -36.73 -2.47 -40.36285 -2.44795 Q -44 -2.43 -48.48748 -2.4145 Q -52.98 -2.4 -55.93683 -2.39414 Q -58.9 -2.39 -62.6873 -2.38297 Q -83.06 -2.35 -96.40267 -2.40435 Q -109.75 -2.45 -114.67271 -2.56501 Q -125.18 -2.8 -116.74444 -2.65131 Q -125.18 -2.8 -82.36063 -2.86141 L -71.03886 -2.87617 L -62.56318 -2.68565 L -79.19059 -2.66118 Q -82.6 -2.66 -84.62656 -2.64874 Q -86.65 -2.64 -87.24408 -2.63178 Q -87.84 -2.62 -87.82491 -2.61569 Q -87.84 -2.62 -87.82468 -2.61542 Q -87.81 -2.61 -87.43417 -2.59985 Q -85.73 -2.56 -74.64463 -2.57709 Q -71.8 -2.58 -70.54699 -2.58341 Q -69.29 -2.59 -66.93483 -2.59272 Q -64.58 -2.6 -63.02646 -2.61008 Q -61.47 -2.62 -59.37841 -2.63895 Q -57.28 -2.66 -55.2445 -2.68405 L -45.83923 -2.80525 Q -42.76 -2.84 -39.36011 -2.87116 Q -35.96 -2.9 -31.59059 -2.91373 Q -27.22 -2.93 -23.50167 -2.93781 Q -19.78 -2.95 -13.7194 -2.95437 Q -2.82 -2.97 6.69701 -2.94571 Q 16.22 -2.92 22.24495 -2.87452 Q 28.27 -2.83 30.99456 -2.76608 Q 35.99 -2.65 32.9958 -2.68224 Q 35.99 -2.65 28.51596 -2.57969 Q 21.04 -2.51 -0.08578 -2.47593 L -2.73858 -2.47221" />
    <path d="M -11.45102 -2.3763 L -11.45102 -2.66806" />
    <path d="M -25.68755 -2.35631 L -25.68755 -2.574" />
    <path d="M -96.48641 1.59528 Q -109.75 1.55 -114.67271 1.43493 Q -125.18 1.2 -116.74444 1.34863 L -116.74444 -2.65131" />
    <path d="M -62.56318 -2.61327 L -62.56318 -2.68565" />
    <path d="M -79.19059 -2.57281 L -79.19059 -2.66118" />
    <path d="M 37.62035 -2.44518 L 67.84336 -2.4876 L 76.0823 -2.3024 L 45.85929 -2.25998 L 47.37449 -2.22592 L 21.50966 -2.18961 L 19.99445 -2.22367 L -59.96862 -2.11143 Q -61.77 -2.11 -62.78724 -2.10691 Q -63.81 -2.1 -64.919 -2.10165 Q -66.03 -2.1 -66.35211 -2.09314 Q -66.67 -2.09 -66.51511 -2.08735 Q -66.67 -2.09 -66.36418 -2.08097 Q -66.06 -2.07 -65.36966 -2.06766 L -88.48694 -2.03521 Q -92.75 -2.07 -95.47221 -2.1334 Q -96.85 -2.16 -96.48641 -2.17533 Q -96.85 -2.16 -96.35936 -2.18842 Q -95.87 -2.21 -94.28617 -2.2278 Q -92.7 -2.24 -89.65522 -2.25493 Q -86.61 -2.27 -83.75729 -2.27283 Q -80.9 -2.28 -77.1134 -2.28413 L 11.75552 -2.40887 L 10.45339 -2.43814 L 36.31822 -2.47445 L 37.62035 -2.44518 Z" />
    <path d="M 76.0823 -1.92226 L 76.0823 -2.3024" />
    <path d="M 47.37449 -1.91154 L 47.37449 -2.22592" />
    <path d="M 21.50966 -1.75706 L 21.50966 -2.18961" />
    <path d="M 19.99445 -1.75493 L 19.99445 -2.22367" />
    <path d="M -65.36966 -1.63511 L -65.36966 -2.06766" />
    <path d="M -88.48694 1.96473 L -88.48694 -2.03521" />
    <path d="M -71.13344 1.94037 L -88.48694 1.96473 Q -92.75 1.93 -95.47221 1.86653 L -95.47221 -2.1334" />
    <path d="M -95.47221 1.86653 Q -96.85 1.84 -96.48641 1.8246 L -96.48641 -2.17533" />
    <path d="M 10.45339 -2.40704 L 10.45339 -2.43814" />
    <path d="M 45.75794 -1.7911 L 45.75794 -1.90927 L 74.84404 -1.9501 L 93.07387 -1.54031 L 63.98777 -1.49948 L 59.03967 -1.61071 L -62.7998 -1.43969 L -71.13344 -1.62702 L 50.70604 -1.79804 L 45.75794 -1.90927" />
    <path d="M 93.07387 -1.32884 L 93.07387 -1.54031" />
    <path d="M 63.98777 -1.43887 L 63.98777 -1.49948" />
    <path d="M 59.03967 -1.43926 L 59.03967 -1.61071" />
    <path d="M -62.7998 2.56025 L -62.7998 -1.43969" />
    <path d="M -49.23434 2.54121 L -62.7998 2.56025 L -71.13344 2.37292 L -71.13344 -1.62702" />
    <path d="M -47.3644 2.94795 Q -49.26 2.91 -49.23434 2.86952 L -49.23434 -1.13042 Q -49.26 -1.09 -49.23403 -1.13135 Q -49.21 -1.17 -47.75251 -1.19535 Q -46.3 -1.22 -43.22771 -1.24523 Q -40.16 -1.27 -36.63068 -1.28361 Q -33.1 -1.3 -28.25745 -1.31261 Q -23.41 -1.33 -19.13828 -1.33389 Q -14.86 -1.34 -9.55735 -1.34932 L 47.57266 -1.42951 Q 67.18 -1.46 80.36432 -1.40854 Q 93.54 -1.36 98.58697 -1.24668 Q 108.81 -1.02 100.65474 -1.1608 Q 108.81 -1.02 68.4541 -0.96012 L 58.12712 -0.94563 Q 38.89 -0.92 31.59912 -0.91065 L 19.28807 -1.18739 L -0.60795 -1.15946 Q -1.56 -1.16 -3.69894 -1.15541 Q -5.84 -1.15 -6.97941 -1.15108 Q -10.39 -1.15 -12.73508 -1.14131 Q -15.08 -1.14 -17.40129 -1.12854 Q -19.72 -1.12 -20.56362 -1.10912 Q -21.4 -1.1 -21.03395 -1.09508 Q -21.4 -1.1 -20.74175 -1.08257 Q -20.06 -1.07 -17.68679 -1.06029 Q -15.32 -1.05 -11.49324 -1.05456 Q -7.67 -1.06 -4.77843 -1.05862 Q -1.89 -1.06 2.37464 -1.06753 Q 10.71 -1.08 11.42262 -1.08136 L 19.85095 -0.8919 L 11.7978 -0.88059 Q -0.05 -0.86 -8.83228 -0.86238 Q -17.62 -0.86 -25.44712 -0.87722 Q -33.27 -0.89 -38.7215 -0.9369 Q -44.17 -0.98 -47.3644 -1.05199 Q -49.26 -1.09 -49.23434 -1.13042" />
    <path d="M -49.23434 2.86952 Q -49.26 2.91 -49.23403 2.86858 L -49.23403 -1.12948" />
    <path d="M 31.59912 -0.79528 L 31.59912 -0.91065" />
    <path d="M 19.28807 -0.90455 L 19.28807 -1.18739" />
    <path d="M 19.85095 -0.7918 L 19.85095 -0.8919" />
    <path d="M -33.27695 3.09681 Q -33.27 3.11 -38.7215 3.06303 L -38.7215 -0.9369" />
    <path d="M -38.7215 3.06303 Q -44.17 3.02 -47.3644 2.94795 L -47.3644 -1.05199" />
    <path d="M 73.00641 -1.21304 Q 72.34 -1.23 70.5199 -1.23612 Q 68.7 -1.24 65.73568 -1.24524 Q 62.78 -1.25 59.81437 -1.24371 Q 56.85 -1.24 52.685 -1.2354 Q 50.7 -1.23 46.73986 -1.22649 Q 42.78 -1.22 40.79473 -1.21758 L 44.77215 -1.12817 L 59.55205 -1.14892 Q 74.9 -1.17 73.21446 -1.20394 Q 74.9 -1.17 73.00641 -1.21304 Z" />
    <path d="M -19.40335 3.53575 L -19.40335 -0.46418 L 42.67822 -0.61635 L -24.99067 -0.58978 L -33.27695 -0.77605 L 50.4741 -0.80088 L 109.78457 -0.9565 L 118.0235 -0.7713 L 71.5985 -0.65638 L 122.19032 -0.67764 L 130.5713 -0.48924 L 64.371 -0.46813 L -11.09339 -0.27739 L -19.40335 -0.46418" />
    <path d="M -24.99067 3.41016 L -24.99067 -0.58978" />
    <path d="M -19.40335 3.40796 L -24.99067 3.41016 L -33.27695 3.22389 L -33.27695 -0.77605" />
    <path d="M 118.0235 -0.67589 L 118.0235 -0.7713" />
    <path d="M 130.5713 -0.4033 L 130.5713 -0.48924" />
    <path d="M 64.371 -0.31037 L 64.371 -0.46813" />
    <path d="M -11.09339 3.72255 L -11.09339 -0.27739" />
    <path d="M -5.52668 3.70848 L -11.09339 3.72255 L -19.40335 3.53575" />
    <path d="M 128.58008 -0.4005 L 158.8031 -0.44293 L 167.04203 -0.25772 L 136.81902 -0.2153 L 138.33422 -0.18124 L 112.46939 -0.14493 L 110.95418 -0.17899 L 30.99111 -0.06675 Q 29.19 -0.06 28.17249 -0.06223 Q 27.15 -0.06 26.04073 -0.05698 Q 24.93 -0.05 24.60762 -0.04846 Q 24.29 -0.04 24.44462 -0.04267 Q 24.29 -0.04 24.59555 -0.03629 Q 24.9 -0.03 25.59007 -0.02298 L 2.47279 0.00947 Q -1.79 -0.03 -4.51247 -0.08873 Q -5.89 -0.12 -5.52668 -0.13066 Q -5.89 -0.12 -5.39963 -0.14374 Q -4.91 -0.17 -3.32644 -0.18312 Q -1.74 -0.2 1.30451 -0.21026 Q 4.35 -0.22 7.20244 -0.22815 Q 10.06 -0.23 13.84633 -0.23945 L 102.71525 -0.3642 L 101.41312 -0.39347 L 127.27795 -0.42977 L 128.58008 -0.4005 Z" />
    <path d="M 167.04203 3.74221 L 167.04203 -0.25772" />
    <path d="M 167.04203 3.74221 L 138.33422 3.78251" />
    <path d="M 138.33422 3.8187 L 138.33422 -0.18124" />
    <path d="M 112.46939 3.855 L 112.46939 -0.14493" />
    <path d="M 138.33422 3.8187 L 112.46939 3.855 L 110.95418 3.82094 L 30.99111 3.93318 L 30.99111 -0.06675" />
    <path d="M 110.95418 3.82094 L 110.95418 -0.17899" />
    <path d="M 30.99111 3.93318 Q 29.19 3.94 28.17249 3.93771 L 28.17249 -0.06223" />
    <path d="M 28.17249 3.93771 Q 27.15 3.94 26.04073 3.94296 L 26.04073 -0.05698" />
    <path d="M 26.04073 3.94296 Q 24.93 3.95 25.59007 3.94449" />
    <path d="M 25.59007 3.97695 L 25.59007 -0.02298" />
    <path d="M 2.47279 4.0094 L 2.47279 0.00947" />
    <path d="M 25.59007 3.97695 L 2.47279 4.0094 Q -1.79 3.97 -4.51247 3.91121 L -4.51247 -0.08873" />
    <path d="M -4.51247 3.91121 Q -5.89 3.88 -5.52668 3.86928 L -5.52668 -0.13066" />
    <path d="M 101.41312 -0.36237 L 101.41312 -0.39347" />
    <path d="M -22.31623 -2.94027 L -22.31623 -3.00054" />
    <path d="M -32.64321 -2.90966 L -32.64321 -2.98604" />
    <path d="M -91.37828 -3.10392 L -91.37828 -3.19988" />
    <path d="M -94.46927 -3.10018 L -94.46927 -3.19583" />
    <path d="M -97.74974 -3.09716 L -97.74974 -3.1915" />
    <path d="M -103.50541 -3.09483 L -103.50541 -3.18173" />
    <path d="M -108.17162 -3.09992 L -108.17162 -3.16896" />
    <path d="M -111.33395 -3.11959 L -111.33395 -3.14954" />
    <path d="M -78.97253 -2.86583 L -78.97253 -2.92101" />
    <path d="M -99.60261 -2.82323 L -99.60261 -2.9028" />
    <path d="M -116.21745 -2.68964 L -116.21745 -2.91764" />
    <path d="M -129.49183 1.02262 L -129.49183 -2.97732" />
    <path d="M -17.76392 -3.23576 L -17.76392 -3.25345" />
    <path d="M -20.25043 -3.21581 L -20.25043 -3.27654" />
    <path d="M -25.03465 -3.20044 L -25.03465 -3.28566" />
    <path d="M -30.95596 -3.18971 L -30.95596 -3.28413" />
    <path d="M -38.08533 -3.1797 L -38.08533 -3.27582" />
    <path d="M -44.03047 -3.17135 L -44.03047 -3.26691" />
    <path d="M 4.32452 -2.71739 L 4.32452 -2.7343" />
    <path d="M 0.99727 -2.69387 L 0.99727 -2.76158" />
    <path d="M -5.05423 -2.6783 L -5.05423 -2.76411" />
    <path d="M -15.57138 -2.37051 L -15.57138 -2.71316" />
    <path d="M -32.74711 -2.34641 L -32.74711 -2.49964" />
    <path d="M -40.36285 -2.33572 L -40.36285 -2.44795" />
    <path d="M -48.48748 -2.32431 L -48.48748 -2.4145" />
    <path d="M -55.93683 -2.31385 L -55.93683 -2.39414" />
    <path d="M -62.6873 -2.30438 L -62.6873 -2.38297" />
    <path d="M -96.40267 -2.18602 L -96.40267 -2.40435" />
    <path d="M -114.67271 1.43493 L -114.67271 -2.56501" />
    <path d="M -84.62656 -2.57799 L -84.62656 -2.64874" />
    <path d="M -87.24408 -2.59622 L -87.24408 -2.63178" />
    <path d="M 28.51596 -2.4635 L 28.51596 -2.57969" />
    <path d="M -0.08578 -2.39225 L -0.08578 -2.47593" />
    <path d="M -59.96862 -1.64269 L -59.96862 -2.11143" />
    <path d="M -62.78724 -1.63874 L -62.78724 -2.10691" />
    <path d="M -64.919 -1.63574 L -64.919 -2.10165" />
    <path d="M -66.35211 -2.0807 L -66.35211 -2.09314" />
    <path d="M 68.4541 -0.84806 L 68.4541 -0.96012" />
    <path d="M 58.12712 -0.82096 L 58.12712 -0.94563" />
    <path d="M -0.60795 -1.0635 L -0.60795 -1.15946" />
    <path d="M -3.69894 -1.05976 L -3.69894 -1.15541" />
    <path d="M -6.97941 -1.05674 L -6.97941 -1.15108" />
    <path d="M -12.73508 -1.05441 L -12.73508 -1.14131" />
    <path d="M -17.40129 -1.0595 L -17.40129 -1.12854" />
    <path d="M -20.56362 -1.07917 L -20.56362 -1.10912" />
    <path d="M 11.7978 -0.78941 L 11.7978 -0.88059" />
    <path d="M -8.83228 -0.7833 L -8.83228 -0.86238" />
    <path d="M -25.44712 -0.77837 L -25.44712 -0.87722" />
    <path d="M 73.00641 -1.19534 L 73.00641 -1.21304" />
    <path d="M 70.5199 -1.17539 L 70.5199 -1.23612" />
    <path d="M 65.73568 -1.16002 L 65.73568 -1.24524" />
    <path d="M 59.81437 -1.14929 L 59.81437 -1.24371" />
    <path d="M 52.685 -1.13928 L 52.685 -1.2354" />
    <path d="M 46.73986 -1.13093 L 46.73986 -1.22649" />
    <path d="M 24.60762 -0.03602 L 24.60762 -0.04846" />
    <path d="M -140.00467 0.8291 L -140.00467 -3.17084" />
    <path d="M 9.88441 -2.93673 L 9.88441 -3.20122" />
    <path d="M 32.9958 -2.46979 L 32.9958 -2.68224" />
    <path d="M 100.65474 -0.93255 L 100.65474 -1.1608" />
</svg>